<svg width="19" height="24" viewBox="0 0 19 24" fill="none" xmlns="http://www.w3.org/2000/svg">
<path d="M4.98047 21.748H13.9355C14.6322 21.748 15.1986 21.5397 15.6348 21.123C16.071 20.7063 16.3054 20.1465 16.3379 19.4434L17.0117 5.24414H18.1836C18.3854 5.24414 18.5563 5.1709 18.6963 5.02441C18.8362 4.87793 18.9062 4.70378 18.9062 4.50195C18.9062 4.30013 18.8346 4.12761 18.6914 3.98438C18.5482 3.84115 18.3789 3.76953 18.1836 3.76953H0.732422C0.537109 3.76953 0.366211 3.84277 0.219727 3.98926C0.0732423 4.13574 0 4.30664 0 4.50195C0 4.70378 0.0732423 4.87793 0.219727 5.02441C0.366211 5.1709 0.537109 5.24414 0.732422 5.24414H1.9043L2.57812 19.4531C2.61067 20.1562 2.84342 20.7145 3.27637 21.1279C3.70931 21.5413 4.27734 21.748 4.98047 21.748ZM5.11719 20.2734C4.83724 20.2734 4.60287 20.179 4.41406 19.9902C4.22526 19.8014 4.12435 19.5638 4.11133 19.2773L3.42773 5.24414H15.4395L14.7949 19.2773C14.7819 19.5703 14.681 19.8096 14.4922 19.9951C14.3034 20.1806 14.0658 20.2734 13.7793 20.2734H5.11719ZM6.5625 18.6035C6.74479 18.6035 6.89128 18.5498 7.00195 18.4424C7.11263 18.3349 7.16797 18.1966 7.16797 18.0273L6.86523 7.57812C6.86523 7.40885 6.80827 7.27214 6.69434 7.16797C6.58041 7.0638 6.43555 7.01172 6.25977 7.01172C6.07748 7.01172 5.92936 7.06543 5.81543 7.17285C5.7015 7.28027 5.64779 7.41862 5.6543 7.58789L5.94727 18.0273C5.95378 18.2031 6.01237 18.3431 6.12305 18.4473C6.23372 18.5514 6.38021 18.6035 6.5625 18.6035ZM9.45312 18.6035C9.64193 18.6035 9.79492 18.5498 9.91211 18.4424C10.0293 18.3349 10.0879 18.1966 10.0879 18.0273V7.58789C10.0879 7.41862 10.0293 7.28027 9.91211 7.17285C9.79492 7.06543 9.64193 7.01172 9.45312 7.01172C9.27083 7.01172 9.1211 7.06543 9.00391 7.17285C8.88672 7.28027 8.82812 7.41862 8.82812 7.58789V18.0273C8.82812 18.1966 8.88672 18.3349 9.00391 18.4424C9.1211 18.5498 9.27083 18.6035 9.45312 18.6035ZM12.3535 18.6035C12.5293 18.6035 12.6725 18.5514 12.7832 18.4473C12.8939 18.3431 12.9525 18.2031 12.959 18.0273L13.252 7.58789C13.2585 7.41862 13.2064 7.28027 13.0957 7.17285C12.985 7.06543 12.8353 7.01172 12.6465 7.01172C12.4707 7.01172 12.3275 7.0638 12.2168 7.16797C12.1061 7.27214 12.0475 7.41211 12.041 7.58789L11.748 18.0273C11.7415 18.1966 11.7936 18.3349 11.9043 18.4424C12.015 18.5498 12.1647 18.6035 12.3535 18.6035ZM5.16602 4.46289H6.71875V2.37305C6.71875 2.09961 6.80827 1.87825 6.9873 1.70898C7.16634 1.53971 7.40234 1.45508 7.69531 1.45508H11.1914C11.4844 1.45508 11.7204 1.53971 11.8994 1.70898C12.0785 1.87825 12.168 2.09961 12.168 2.37305V4.46289H13.7207V2.27539C13.7207 1.57226 13.5042 1.01725 13.0713 0.610352C12.6384 0.203451 12.0475 0 11.2988 0H7.58789C6.83919 0 6.24837 0.203451 5.81543 0.610352C5.38249 1.01725 5.16602 1.57226 5.16602 2.27539V4.46289Z" fill="white"/>
</svg>
